<?xml version="1.0" standalone="no"?><!DOCTYPE svg PUBLIC "-//W3C//DTD SVG 1.1//EN" "http://www.w3.org/Graphics/SVG/1.1/DTD/svg11.dtd"><svg t="1772848065757" class="icon" viewBox="0 0 1024 1024" version="1.1" xmlns="http://www.w3.org/2000/svg" p-id="5370" data-spm-anchor-id="a313x.search_index.0.i11.de003a81W56czm" xmlns:xlink="http://www.w3.org/1999/xlink" width="256" height="256"><path d="M926.38 754A26.39 26.39 0 0 1 900 727.64V303.75a59.72 59.72 0 0 0-59.65-59.65H521.5a26.38 26.38 0 0 1-23.84-15.1l-10-21a85 85 0 0 0-76-47.34H209a85.08 85.08 0 0 0-85 85v481.45a26.4 26.4 0 0 1-52.79 0V245.69c0-76 61.81-137.78 137.78-137.78H411.7c52.25 0 100.73 30.28 123.51 77.15a2 2 0 0 1 0.1 0.21l2.88 6h302.15a112.56 112.56 0 0 1 112.44 112.48v423.89a26.4 26.4 0 0 1-26.4 26.36z" fill="#3451b2" p-id="5371" data-spm-anchor-id="a313x.search_index.0.i15.de003a81W56czm" class="selected"></path><path d="M856.17 431h-52.78v-44.9a56.55 56.55 0 0 0-56.49-56.48H276.57a56.55 56.55 0 0 0-56.49 56.48V431H167.3v-44.9a109.08 109.08 0 0 1 109.27-109.27H746.9A109.07 109.07 0 0 1 856.17 386.1z" fill="#3451b2" p-id="5372" data-spm-anchor-id="a313x.search_index.0.i10.de003a81W56czm" class="selected"></path><path d="M843.5 916.09h-663A109.08 109.08 0 0 1 71.22 806.82V498A109.08 109.08 0 0 1 180.5 388.74h663A109.08 109.08 0 0 1 952.78 498v308.82A109.08 109.08 0 0 1 843.5 916.09z m-663-474.56A56.55 56.55 0 0 0 124 498v308.82a56.55 56.55 0 0 0 56.5 56.48h663a56.55 56.55 0 0 0 56.5-56.48V498a56.55 56.55 0 0 0-56.49-56.48z" fill="#3451b2" p-id="5373" data-spm-anchor-id="a313x.search_index.0.i13.de003a81W56czm" class="selected"></path><path d="M383.2 562.94H227.48a26.4 26.4 0 1 1 0-52.79H383.2a26.4 26.4 0 0 1 0 52.79zM383.2 664.29H227.48a26.4 26.4 0 1 1 0-52.79H383.2a26.4 26.4 0 0 1 0 52.79z" fill="#3451b2" p-id="5374" data-spm-anchor-id="a313x.search_index.0.i12.de003a81W56czm" class="selected"></path></svg>